<?xml version="1.0" encoding="utf-8"?>
<!-- Generator: Adobe Illustrator 18.1.1, SVG Export Plug-In . SVG Version: 6.00 Build 0)  -->
<svg version="1.1" id="Layer_1" xmlns="http://www.w3.org/2000/svg" xmlns:xlink="http://www.w3.org/1999/xlink" x="0px" y="0px"
	 viewBox="0 0 32 32" style="enable-background:new 0 0 32 32;" xml:space="preserve">
<g id="Guide">
</g>
<path d="M16,16c-3.9,0-7-3.1-7-7s3.1-7,7-7s7,3.1,7,7S19.9,16,16,16z M16,4c-2.8,0-5,2.2-5,5s2.2,5,5,5s5-2.2,5-5S18.8,4,16,4z"/>
<path d="M22,28H5v-3.1c0-1.4,0.8-2.7,2.1-3.3c4.6-2.3,10.1-2.7,14.9-1.2v-2.1c-5.2-1.4-11-1-15.8,1.5c-2,1-3.2,2.9-3.2,5.1V30h19V28
	z"/>
<polygon points="32,23 27,23 27,18 25,18 25,23 20,23 20,25 25,25 25,30 27,30 27,25 32,25 "/>
</svg>
