<?xml version="1.0" encoding="utf-8"?>
<!-- Generator: Adobe Illustrator 18.1.1, SVG Export Plug-In . SVG Version: 6.00 Build 0)  -->
<svg version="1.1" id="Layer_1" xmlns="http://www.w3.org/2000/svg" xmlns:xlink="http://www.w3.org/1999/xlink" x="0px" y="0px"
	 viewBox="0 0 32 32" style="enable-background:new 0 0 32 32;" xml:space="preserve">
<g id="Guide">
</g>
<path d="M29,6H15.8c-0.4-1.4-1.8-2.5-3.3-2.5c-1.6,0-2.9,1.1-3.3,2.5H3v2h6.2c0.4,1.4,1.8,2.5,3.3,2.5s2.9-1.1,3.3-2.5H29V6z
	 M12.5,8.5C11.7,8.5,11,7.8,11,7s0.7-1.5,1.5-1.5S14,6.2,14,7S13.3,8.5,12.5,8.5z"/>
<path d="M29,15h-4.2c-0.4-1.4-1.8-2.5-3.3-2.5c-1.6,0-2.9,1.1-3.3,2.5H3v2h15.2c0.4,1.4,1.8,2.5,3.3,2.5s2.9-1.1,3.3-2.5H29V15z
	 M21.5,17.5c-0.8,0-1.5-0.7-1.5-1.5s0.7-1.5,1.5-1.5S23,15.2,23,16S22.3,17.5,21.5,17.5z"/>
<path d="M29,24H13.8c-0.4-1.4-1.8-2.5-3.3-2.5c-1.6,0-2.9,1.1-3.3,2.5H3v2h4.2c0.4,1.4,1.8,2.5,3.3,2.5s2.9-1.1,3.3-2.5H29V24z
	 M10.5,26.5C9.7,26.5,9,25.8,9,25s0.7-1.5,1.5-1.5S12,24.2,12,25S11.3,26.5,10.5,26.5z"/>
</svg>
