<?xml version="1.0" encoding="utf-8"?>
<!-- Generator: Adobe Illustrator 18.1.1, SVG Export Plug-In . SVG Version: 6.00 Build 0)  -->
<svg version="1.1" id="Layer_1" xmlns="http://www.w3.org/2000/svg" xmlns:xlink="http://www.w3.org/1999/xlink" x="0px" y="0px"
	 viewBox="0 0 298.5 106" enable-background="new 0 0 298.5 106" xml:space="preserve">
<g>
	<g>
		<g>
			<path fill="#00B298" d="M64.6,68.8c-2.4,0-4.4-2-4.4-4.4v-1.6h-4v1.6c0,2.4-2,4.4-4.4,4.4s-4.4-2-4.4-4.4v-1.6h-6v-2.4h6v-4h-1.6
				c-2.4,0-4.4-2-4.4-4.4s2-4.4,4.4-4.4h1.6v-4h-1.8c-2.3,0-4.2-1.9-4.2-4.2s1.9-4.2,4.2-4.2s4.2,1.9,4.2,4.2v1.8h4v-1.6
				c0-2.4,2-4.4,4.4-4.4s4.4,2,4.4,4.4v1.6h4v-6h2.4v6h1.6c2.4,0,4.4,2,4.4,4.4S73,50,70.6,50h-1.6v4h1.6c2.4,0,4.4,2,4.4,4.4
				s-2,4.4-4.4,4.4h-1.6v1.6C68.9,66.8,67,68.8,64.6,68.8z M62.6,62.8v1.6c0,1.1,0.9,2,2,2c1.1,0,2-0.9,2-2v-1.6H62.6z M49.8,62.8
				v1.6c0,1.1,0.9,2,2,2c1.1,0,2-0.9,2-2v-1.6H49.8z M68.9,60.4h1.6c1.1,0,2-0.9,2-2c0-1.1-0.9-2-2-2h-1.6V60.4z M62.6,60.4h4v-4h-4
				V60.4z M56.2,60.4h4v-4h-4V60.4z M49.8,60.4h4v-4h-4V60.4z M62.6,54h4v-4h-4V54z M56.2,54h4v-4h-4V54z M49.8,54h4v-4h-4V54z
				 M45.8,50c-1.1,0-2,0.9-2,2c0,1.1,0.9,2,2,2h1.6v-4H45.8z M68.9,47.6h1.6c1.1,0,2-0.9,2-2s-0.9-2-2-2h-1.6V47.6z M62.6,47.6h4v-4
				h-4V47.6z M56.2,47.6h4v-4h-4V47.6z M49.8,47.6h4v-4h-4V47.6z M56.2,41.3h4v-1.6c0-1.1-0.9-2-2-2c-1.1,0-2,0.9-2,2V41.3z
				 M45.6,37.6c-1,0-1.8,0.8-1.8,1.8s0.8,1.8,1.8,1.8h1.8v-1.8C47.4,38.4,46.6,37.6,45.6,37.6z"/>
		</g>
		<g>
			<path fill="#303030" d="M117.5,38.4h4.8L114.6,66h-4.8l-6.7-20.9L96.4,66h-4.8l-7.8-27.6h4.9l5.5,20.2l6.5-20.2h4.9l6.6,20.3
				L117.5,38.4z"/>
			<path fill="#303030" d="M139.2,60.6c-0.3,0.8-0.6,1.6-1.1,2.3c-0.5,0.7-1.1,1.4-1.8,1.9c-0.7,0.5-1.6,1-2.5,1.3
				c-0.9,0.3-2,0.5-3.1,0.5c-1.3,0-2.5-0.2-3.7-0.7c-1.2-0.5-2.2-1.1-3.1-2c-0.9-0.9-1.6-1.9-2.1-3.2c-0.5-1.3-0.8-2.7-0.8-4.3
				c0-1.5,0.3-2.9,0.8-4.1c0.5-1.2,1.2-2.3,2-3.1c0.9-0.9,1.8-1.5,3-2c1.1-0.5,2.3-0.7,3.5-0.7c1.5,0,2.8,0.2,3.9,0.7
				c1.2,0.5,2.1,1.1,2.9,2c0.8,0.9,1.4,1.9,1.8,3.1c0.4,1.2,0.6,2.6,0.6,4.1c0,0.4,0,0.7,0,1c0,0.3-0.1,0.4-0.1,0.5h-13.9
				c0,0.7,0.2,1.4,0.5,2c0.3,0.6,0.7,1.1,1.1,1.6c0.5,0.4,1,0.8,1.6,1c0.6,0.2,1.3,0.4,2,0.4c1.4,0,2.4-0.3,3.2-1
				c0.7-0.6,1.3-1.4,1.6-2.4L139.2,60.6z M134.9,54.5c0-0.5-0.1-1.1-0.3-1.6c-0.2-0.5-0.5-1-0.9-1.3c-0.4-0.4-0.9-0.7-1.4-0.9
				c-0.6-0.2-1.2-0.4-2-0.4c-0.7,0-1.3,0.1-1.9,0.4c-0.6,0.2-1,0.6-1.4,1c-0.4,0.4-0.7,0.9-0.9,1.4c-0.2,0.5-0.4,1-0.4,1.5H134.9z"
				/>
			<path fill="#303030" d="M141.9,60.9c0-0.9,0.1-1.6,0.4-2.3c0.3-0.6,0.7-1.2,1.2-1.7c0.5-0.5,1.1-0.9,1.8-1.2
				c0.7-0.3,1.5-0.5,2.3-0.6l4.9-0.7c0.5-0.1,0.9-0.2,1.1-0.5c0.2-0.2,0.3-0.5,0.3-0.9c0-0.8-0.3-1.5-0.9-2
				c-0.6-0.6-1.5-0.8-2.7-0.8c-1.2,0-2.1,0.3-2.8,1c-0.6,0.7-1,1.5-1.1,2.4l-4.1-0.9c0.1-0.8,0.3-1.6,0.7-2.3c0.4-0.8,1-1.4,1.6-2
				c0.7-0.6,1.5-1,2.4-1.4c0.9-0.3,2-0.5,3.2-0.5c1.5,0,2.7,0.2,3.7,0.6c1,0.4,1.9,0.9,2.5,1.6c0.6,0.6,1.1,1.4,1.4,2.3
				c0.3,0.9,0.4,1.8,0.4,2.7V63c0,0.9,0,1.6,0.1,2.1c0.1,0.5,0.1,0.9,0.1,1h-4.2c0-0.1-0.1-0.3-0.1-0.7c-0.1-0.4-0.1-1-0.1-1.7
				c-0.4,0.7-1.1,1.4-2.1,2c-1,0.6-2.2,1-3.7,1c-1,0-1.9-0.2-2.7-0.5c-0.8-0.3-1.5-0.7-2-1.3c-0.6-0.5-1-1.1-1.3-1.8
				C142.1,62.4,141.9,61.6,141.9,60.9z M149.2,63.1c0.6,0,1.2-0.1,1.8-0.3c0.6-0.2,1.1-0.4,1.5-0.8c0.4-0.4,0.8-0.9,1-1.5
				c0.3-0.6,0.4-1.4,0.4-2.3v-0.9l-5,0.7c-0.7,0.1-1.3,0.4-1.8,0.8c-0.5,0.4-0.7,1-0.7,1.8c0,0.6,0.2,1.2,0.7,1.7
				C147.6,62.8,148.3,63.1,149.2,63.1z"/>
			<path fill="#303030" d="M161.9,66V38.4h4.5V66H161.9z"/>
			<path fill="#303030" d="M176.9,47.1h3.9v4h-3.9v8.8c0,0.8,0.2,1.4,0.6,1.8c0.4,0.4,1,0.6,1.8,0.6c0.3,0,0.6,0,0.9-0.1
				c0.3,0,0.5-0.1,0.6-0.1v3.7c-0.1,0.1-0.4,0.1-0.9,0.3c-0.4,0.1-1.1,0.2-1.9,0.2c-1.8,0-3.2-0.5-4.2-1.5c-1-1-1.5-2.4-1.5-4.2
				v-9.6h-3.5v-4h1c1,0,1.8-0.3,2.2-0.9c0.5-0.6,0.7-1.3,0.7-2.1v-2.8h4.1V47.1z"/>
			<path fill="#303030" d="M188.1,66h-4.5V38.4h4.5v10.5c0.6-0.8,1.5-1.4,2.5-1.8c1-0.4,2-0.6,3-0.6c1.2,0,2.2,0.2,3.1,0.6
				c0.9,0.4,1.6,0.9,2.2,1.6c0.6,0.7,1,1.5,1.3,2.4c0.3,0.9,0.4,1.9,0.4,2.9v12H196V54.8c0-1.2-0.3-2.2-0.9-3
				c-0.6-0.8-1.6-1.2-3-1.2c-1.2,0-2.2,0.4-2.9,1.2c-0.7,0.8-1,1.8-1.1,3.1V66z"/>
			<path fill="#303030" d="M213.6,38.4c1.3,0,2.5,0.2,3.5,0.5c1,0.4,1.9,0.9,2.7,1.5c0.7,0.7,1.3,1.4,1.7,2.4c0.4,0.9,0.6,1.9,0.6,3
				c0,1.5-0.4,2.7-1.1,3.8c-0.8,1-1.7,1.8-2.9,2.2c1.5,0.4,2.7,1.2,3.6,2.4c0.9,1.2,1.4,2.6,1.4,4.2c0,1.1-0.2,2.1-0.6,3.1
				c-0.4,0.9-1,1.7-1.7,2.4c-0.7,0.7-1.6,1.2-2.7,1.6c-1.1,0.4-2.2,0.6-3.5,0.6h-10.2V38.4H213.6z M212.9,50.1
				c1.4,0,2.4-0.4,3.2-1.1c0.8-0.7,1.1-1.6,1.1-2.8s-0.4-2.1-1.2-2.8c-0.8-0.7-1.9-1.1-3.3-1.1h-4.1v7.7H212.9z M213.5,62.1
				c1.4,0,2.5-0.4,3.4-1.1c0.8-0.7,1.3-1.7,1.3-2.9c0-1.2-0.4-2.2-1.2-2.9c-0.8-0.8-1.9-1.1-3.3-1.1h-4.9v8H213.5z"/>
			<path fill="#303030" d="M224.8,60.9c0-0.9,0.1-1.6,0.4-2.3c0.3-0.6,0.7-1.2,1.2-1.7c0.5-0.5,1.1-0.9,1.8-1.2
				c0.7-0.3,1.5-0.5,2.3-0.6l4.9-0.7c0.5-0.1,0.9-0.2,1.1-0.5c0.2-0.2,0.3-0.5,0.3-0.9c0-0.8-0.3-1.5-0.9-2
				c-0.6-0.6-1.5-0.8-2.7-0.8c-1.2,0-2.1,0.3-2.8,1c-0.6,0.7-1,1.5-1.1,2.4l-4.1-0.9c0.1-0.8,0.3-1.6,0.7-2.3c0.4-0.8,1-1.4,1.6-2
				c0.7-0.6,1.5-1,2.4-1.4c0.9-0.3,2-0.5,3.2-0.5c1.5,0,2.7,0.2,3.7,0.6c1,0.4,1.9,0.9,2.5,1.6c0.6,0.6,1.1,1.4,1.4,2.3
				c0.3,0.9,0.4,1.8,0.4,2.7V63c0,0.9,0,1.6,0.1,2.1c0.1,0.5,0.1,0.9,0.1,1h-4.2c0-0.1-0.1-0.3-0.1-0.7c-0.1-0.4-0.1-1-0.1-1.7
				c-0.4,0.7-1.1,1.4-2.1,2c-1,0.6-2.2,1-3.7,1c-1,0-1.9-0.2-2.7-0.5c-0.8-0.3-1.5-0.7-2-1.3c-0.6-0.5-1-1.1-1.3-1.8
				C224.9,62.4,224.8,61.6,224.8,60.9z M232.1,63.1c0.6,0,1.2-0.1,1.8-0.3c0.6-0.2,1.1-0.4,1.5-0.8c0.4-0.4,0.8-0.9,1-1.5
				c0.3-0.6,0.4-1.4,0.4-2.3v-0.9l-5,0.7c-0.7,0.1-1.3,0.4-1.8,0.8c-0.5,0.4-0.7,1-0.7,1.8c0,0.6,0.2,1.2,0.7,1.7
				C230.5,62.8,231.2,63.1,232.1,63.1z"/>
			<path fill="#303030" d="M255.9,51.5c-0.5-0.1-1-0.1-1.5-0.1c-1.8,0-3.1,0.5-3.9,1.4c-0.8,1-1.2,2.3-1.2,4.1v9h-4.5v-19h4.4v3
				c0.4-1,1.2-1.8,2.1-2.4c1-0.6,2.1-0.9,3.4-0.9c0.3,0,0.5,0,0.7,0c0.2,0,0.4,0.1,0.5,0.1V51.5z"/>
		</g>
	</g>
</g>
</svg>
