<?xml version="1.0" encoding="UTF-8"?>
<svg width="215px" height="34px" viewBox="0 0 215 34" version="1.1" xmlns="http://www.w3.org/2000/svg" xmlns:xlink="http://www.w3.org/1999/xlink">
    <!-- Generator: Sketch 46.1 (44463) - http://www.bohemiancoding.com/sketch -->
    <title>logo</title>
    <desc>Created with Sketch.</desc>
    <defs></defs>
    <g id="Page-1" stroke="none" stroke-width="1" fill="none" fill-rule="evenodd">
        <g id="logo" fill-rule="nonzero">
            <path d="M23.6,33.8 C21.2,33.8 19.2,31.8 19.2,29.4 L19.2,27.8 L15.2,27.8 L15.2,29.4 C15.2,31.8 13.2,33.8 10.8,33.8 C8.4,33.8 6.4,31.8 6.4,29.4 L6.4,27.8 L0.4,27.8 L0.4,25.4 L6.4,25.4 L6.4,21.4 L4.8,21.4 C2.4,21.4 0.4,19.4 0.4,17 C0.4,14.6 2.4,12.6 4.8,12.6 L6.4,12.6 L6.4,8.6 L4.6,8.6 C2.3,8.6 0.4,6.7 0.4,4.4 C0.4,2.1 2.3,0.2 4.6,0.2 C6.9,0.2 8.8,2.1 8.8,4.4 L8.8,6.2 L12.8,6.2 L12.8,4.6 C12.8,2.2 14.8,0.2 17.2,0.2 C19.6,0.2 21.6,2.2 21.6,4.6 L21.6,6.2 L25.6,6.2 L25.6,0.2 L28,0.2 L28,6.2 L29.6,6.2 C32,6.2 34,8.2 34,10.6 C34,13 32,15 29.6,15 L28,15 L28,19 L29.6,19 C32,19 34,21 34,23.4 C34,25.8 32,27.8 29.6,27.8 L28,27.8 L28,29.4 C27.9,31.8 26,33.8 23.6,33.8 Z M21.6,27.8 L21.6,29.4 C21.6,30.5 22.5,31.4 23.6,31.4 C24.7,31.4 25.6,30.5 25.6,29.4 L25.6,27.8 L21.6,27.8 L21.6,27.8 Z M8.8,27.8 L8.8,29.4 C8.8,30.5 9.7,31.4 10.8,31.4 C11.9,31.4 12.8,30.5 12.8,29.4 L12.8,27.8 L8.8,27.8 L8.8,27.8 Z M27.9,25.4 L29.5,25.4 C30.6,25.4 31.5,24.5 31.5,23.4 C31.5,22.3 30.6,21.4 29.5,21.4 L27.9,21.4 L27.9,25.4 Z M21.6,25.4 L25.6,25.4 L25.6,21.4 L21.6,21.4 L21.6,25.4 L21.6,25.4 Z M15.2,25.4 L19.2,25.4 L19.2,21.4 L15.2,21.4 L15.2,25.4 Z M8.8,25.4 L12.8,25.4 L12.8,21.4 L8.8,21.4 L8.8,25.4 Z M21.6,19 L25.6,19 L25.6,15 L21.6,15 L21.6,19 L21.6,19 Z M15.2,19 L19.2,19 L19.2,15 L15.2,15 L15.2,19 Z M8.8,19 L12.8,19 L12.8,15 L8.8,15 L8.8,19 Z M4.8,15 C3.7,15 2.8,15.9 2.8,17 C2.8,18.1 3.7,19 4.8,19 L6.4,19 L6.4,15 L4.8,15 Z M27.9,12.6 L29.5,12.6 C30.6,12.6 31.5,11.7 31.5,10.6 C31.5,9.5 30.6,8.6 29.5,8.6 L27.9,8.6 L27.9,12.6 Z M21.6,12.6 L25.6,12.6 L25.6,8.6 L21.6,8.6 L21.6,12.6 L21.6,12.6 Z M15.2,12.6 L19.2,12.6 L19.2,8.6 L15.2,8.6 L15.2,12.6 Z M8.8,12.6 L12.8,12.6 L12.8,8.6 L8.8,8.6 L8.8,12.6 Z M15.2,6.3 L19.2,6.3 L19.2,4.7 C19.2,3.6 18.3,2.7 17.2,2.7 C16.1,2.7 15.2,3.6 15.2,4.7 L15.2,6.3 Z M4.6,2.6 C3.6,2.6 2.8,3.4 2.8,4.4 C2.8,5.4 3.6,6.2 4.6,6.2 L6.4,6.2 L6.4,4.4 C6.4,3.4 5.6,2.6 4.6,2.6 Z" id="Shape" fill="$jade-300"></path>
            <g id="Group" transform="translate(42.000000, 3.000000)" fill="#303030">
                <polygon id="Shape" points="34.5 0.4 39.3 0.4 31.6 28 26.8 28 20.1 7.1 13.4 28 8.6 28 0.8 0.4 5.7 0.4 11.2 20.6 17.7 0.4 22.6 0.4 29.2 20.7"></polygon>
                <path d="M56.2,22.6 C55.9,23.4 55.6,24.2 55.1,24.9 C54.6,25.6 54,26.3 53.3,26.8 C52.6,27.3 51.7,27.8 50.8,28.1 C49.9,28.4 48.8,28.6 47.7,28.6 C46.4,28.6 45.2,28.4 44,27.9 C42.8,27.4 41.8,26.8 40.9,25.9 C40,25 39.3,24 38.8,22.7 C38.3,21.4 38,20 38,18.4 C38,16.9 38.3,15.5 38.8,14.3 C39.3,13.1 40,12 40.8,11.2 C41.7,10.3 42.6,9.7 43.8,9.2 C44.9,8.7 46.1,8.5 47.3,8.5 C48.8,8.5 50.1,8.7 51.2,9.2 C52.4,9.7 53.3,10.3 54.1,11.2 C54.9,12.1 55.5,13.1 55.9,14.3 C56.3,15.5 56.5,16.9 56.5,18.4 C56.5,18.8 56.5,19.1 56.5,19.4 C56.5,19.7 56.4,19.8 56.4,19.9 L42.5,19.9 C42.5,20.6 42.7,21.3 43,21.9 C43.3,22.5 43.7,23 44.1,23.5 C44.6,23.9 45.1,24.3 45.7,24.5 C46.3,24.7 47,24.9 47.7,24.9 C49.1,24.9 50.1,24.6 50.9,23.9 C51.6,23.3 52.2,22.5 52.5,21.5 L56.2,22.6 Z M51.9,16.5 C51.9,16 51.8,15.4 51.6,14.9 C51.4,14.4 51.1,13.9 50.7,13.6 C50.3,13.2 49.8,12.9 49.3,12.7 C48.7,12.5 48.1,12.3 47.3,12.3 C46.6,12.3 46,12.4 45.4,12.7 C44.8,12.9 44.4,13.3 44,13.7 C43.6,14.1 43.3,14.6 43.1,15.1 C42.9,15.6 42.7,16.1 42.7,16.6 L51.9,16.6 L51.9,16.5 Z" id="Shape"></path>
                <path d="M58.9,22.9 C58.9,22 59,21.3 59.3,20.6 C59.6,20 60,19.4 60.5,18.9 C61,18.4 61.6,18 62.3,17.7 C63,17.4 63.8,17.2 64.6,17.1 L69.5,16.4 C70,16.3 70.4,16.2 70.6,15.9 C70.8,15.7 70.9,15.4 70.9,15 C70.9,14.2 70.6,13.5 70,13 C69.4,12.4 68.5,12.2 67.3,12.2 C66.1,12.2 65.2,12.5 64.5,13.2 C63.9,13.9 63.5,14.7 63.4,15.6 L59.3,14.7 C59.4,13.9 59.6,13.1 60,12.4 C60.4,11.6 61,11 61.6,10.4 C62.3,9.8 63.1,9.4 64,9 C64.9,8.7 66,8.5 67.2,8.5 C68.7,8.5 69.9,8.7 70.9,9.1 C71.9,9.5 72.8,10 73.4,10.7 C74,11.3 74.5,12.1 74.8,13 C75.1,13.9 75.2,14.8 75.2,15.7 L75.2,25 C75.2,25.9 75.2,26.6 75.3,27.1 C75.4,27.6 75.4,28 75.4,28.1 L71.2,28.1 C71.2,28 71.1,27.8 71.1,27.4 C71,27 71,26.4 71,25.7 C70.6,26.4 69.9,27.1 68.9,27.7 C67.9,28.3 66.7,28.7 65.2,28.7 C64.2,28.7 63.3,28.5 62.5,28.2 C61.7,27.9 61,27.5 60.5,26.9 C59.9,26.4 59.5,25.8 59.2,25.1 C59.1,24.4 58.9,23.6 58.9,22.9 Z M66.2,25.1 C66.8,25.1 67.4,25 68,24.8 C68.6,24.6 69.1,24.4 69.5,24 C69.9,23.6 70.3,23.1 70.5,22.5 C70.8,21.9 70.9,21.1 70.9,20.2 L70.9,19.3 L65.9,20 C65.2,20.1 64.6,20.4 64.1,20.8 C63.6,21.2 63.4,21.8 63.4,22.6 C63.4,23.2 63.6,23.8 64.1,24.3 C64.6,24.8 65.3,25.1 66.2,25.1 Z" id="Shape"></path>
                <polygon id="Shape" points="78.9 28 78.9 0.4 83.4 0.4 83.4 28"></polygon>
                <path d="M93.9,9.1 L97.8,9.1 L97.8,13.1 L93.9,13.1 L93.9,21.9 C93.9,22.7 94.1,23.3 94.5,23.7 C94.9,24.1 95.5,24.3 96.3,24.3 C96.6,24.3 96.9,24.3 97.2,24.2 C97.5,24.2 97.7,24.1 97.8,24.1 L97.8,27.8 C97.7,27.9 97.4,27.9 96.9,28.1 C96.5,28.2 95.8,28.3 95,28.3 C93.2,28.3 91.8,27.8 90.8,26.8 C89.8,25.8 89.3,24.4 89.3,22.6 L89.3,13 L85.8,13 L85.8,9 L86.8,9 C87.8,9 88.6,8.7 89,8.1 C89.5,7.5 89.7,6.8 89.7,6 L89.7,3.2 L93.8,3.2 L93.8,9.1 L93.9,9.1 Z" id="Shape"></path>
                <path d="M105.1,28 L100.6,28 L100.6,0.4 L105.1,0.4 L105.1,10.9 C105.7,10.1 106.6,9.5 107.6,9.1 C108.6,8.7 109.6,8.5 110.6,8.5 C111.8,8.5 112.8,8.7 113.7,9.1 C114.6,9.5 115.3,10 115.9,10.7 C116.5,11.4 116.9,12.2 117.2,13.1 C117.5,14 117.6,15 117.6,16 L117.6,28 L113,28 L113,16.8 C113,15.6 112.7,14.6 112.1,13.8 C111.5,13 110.5,12.6 109.1,12.6 C107.9,12.6 106.9,13 106.2,13.8 C105.5,14.6 105.2,15.6 105.1,16.9 L105.1,28 Z" id="Shape"></path>
                <path d="M130.6,0.4 C131.9,0.4 133.1,0.6 134.1,0.9 C135.1,1.3 136,1.8 136.8,2.4 C137.5,3.1 138.1,3.8 138.5,4.8 C138.9,5.7 139.1,6.7 139.1,7.8 C139.1,9.3 138.7,10.5 138,11.6 C137.2,12.6 136.3,13.4 135.1,13.8 C136.6,14.2 137.8,15 138.7,16.2 C139.6,17.4 140.1,18.8 140.1,20.4 C140.1,21.5 139.9,22.5 139.5,23.5 C139.1,24.4 138.5,25.2 137.8,25.9 C137.1,26.6 136.2,27.1 135.1,27.5 C134,27.9 132.9,28.1 131.6,28.1 L121.4,28.1 L121.4,0.4 L130.6,0.4 Z M129.9,12.1 C131.3,12.1 132.3,11.7 133.1,11 C133.9,10.3 134.2,9.4 134.2,8.2 C134.2,7 133.8,6.1 133,5.4 C132.2,4.7 131.1,4.3 129.7,4.3 L125.6,4.3 L125.6,12 L129.9,12 L129.9,12.1 Z M130.5,24.1 C131.9,24.1 133,23.7 133.9,23 C134.7,22.3 135.2,21.3 135.2,20.1 C135.2,18.9 134.8,17.9 134,17.2 C133.2,16.4 132.1,16.1 130.7,16.1 L125.8,16.1 L125.8,24.1 L130.5,24.1 Z" id="Shape"></path>
                <path d="M141.8,22.9 C141.8,22 141.9,21.3 142.2,20.6 C142.5,20 142.9,19.4 143.4,18.9 C143.9,18.4 144.5,18 145.2,17.7 C145.9,17.4 146.7,17.2 147.5,17.1 L152.4,16.4 C152.9,16.3 153.3,16.2 153.5,15.9 C153.7,15.7 153.8,15.4 153.8,15 C153.8,14.2 153.5,13.5 152.9,13 C152.3,12.4 151.4,12.2 150.2,12.2 C149,12.2 148.1,12.5 147.4,13.2 C146.8,13.9 146.4,14.7 146.3,15.6 L142.2,14.7 C142.3,13.9 142.5,13.1 142.9,12.4 C143.3,11.6 143.9,11 144.5,10.4 C145.2,9.8 146,9.4 146.9,9 C147.8,8.7 148.9,8.5 150.1,8.5 C151.6,8.5 152.8,8.7 153.8,9.1 C154.8,9.5 155.7,10 156.3,10.7 C156.9,11.3 157.4,12.1 157.7,13 C158,13.9 158.1,14.8 158.1,15.7 L158.1,25 C158.1,25.9 158.1,26.6 158.2,27.1 C158.3,27.6 158.3,28 158.3,28.1 L154.1,28.1 C154.1,28 154,27.8 154,27.4 C153.9,27 153.9,26.4 153.9,25.7 C153.5,26.4 152.8,27.1 151.8,27.7 C150.8,28.3 149.6,28.7 148.1,28.7 C147.1,28.7 146.2,28.5 145.4,28.2 C144.6,27.9 143.9,27.5 143.4,26.9 C142.8,26.4 142.4,25.8 142.1,25.1 C141.9,24.4 141.8,23.6 141.8,22.9 Z M149.1,25.1 C149.7,25.1 150.3,25 150.9,24.8 C151.5,24.6 152,24.4 152.4,24 C152.8,23.6 153.2,23.1 153.4,22.5 C153.7,21.9 153.8,21.1 153.8,20.2 L153.8,19.3 L148.8,20 C148.1,20.1 147.5,20.4 147,20.8 C146.5,21.2 146.3,21.8 146.3,22.6 C146.3,23.2 146.5,23.8 147,24.3 C147.5,24.8 148.2,25.1 149.1,25.1 Z" id="Shape"></path>
                <path d="M172.9,13.5 C172.4,13.4 171.9,13.4 171.4,13.4 C169.6,13.4 168.3,13.9 167.5,14.8 C166.7,15.8 166.3,17.1 166.3,18.9 L166.3,27.9 L161.8,27.9 L161.8,8.9 L166.2,8.9 L166.2,11.9 C166.6,10.9 167.4,10.1 168.3,9.5 C169.3,8.9 170.4,8.6 171.7,8.6 C172,8.6 172.2,8.6 172.4,8.6 C172.6,8.6 172.8,8.7 172.9,8.7 L172.9,13.5 Z" id="Shape"></path>
            </g>
        </g>
    </g>
</svg>
