<svg viewBox="0 0 32 32">
  <path d="M23.1,29L23.1,29c-0.5,0-1-0.1-1.5-0.2c-9.1-2.3-16.2-9.4-18.5-18.5c-0.5-2,0.1-4.2, 1.6-5.7l1.8-1.8c1.1-1.1,3.1-1.1,4.2,0 l3.5,3.5c0.6,0.6,0.9,1.3,0.9,2.1c0,0.8-0.3,1.6-0.9,2.1l-1.6,1.6c-0.3, 0.3-0.4,0.9-0.1,1.3c1.6,2.3,3.6,4.3,5.9,5.9 c0.4,0.3,1,0.2,1.3-0.1l1.6-1.6c1.1-1.1,3.1-1.1,4.2,0l3.5,3.5c1.2,1.2,1.2,3.1,0,4.2l-1.8,1.8C26.3,28.4,24.7,29,23.1,29z M8.6,4 C8.4,4,8.1,4.1,7.9,4.3L6.2,6c-1,1-1.4,2.4-1.1,3.8c2.1,8.4,8.6,14.9,17.1,17.1c0.3,0.1,0.6,0.1,1,0.1l0,0c1.1,0,2.1-0.4,2.8-1.2 l1.8-1.8c0.4-0.4,0.4-1,0-1.4l-3.5-3.5c-0.4-0.4-1-0.4-1.4,0l-1.6,1.6c-1,1-2.7,1.2-3.9,0.3c-2.5-1.8-4.6-3.9-6.4-6.4 c-0.9-1.2-0.7-2.8,0.3-3.9l1.6-1.6c0.2-0.2,0.3-0.4,0.3-0.7c0-0.3-0.1-0.5-0.3-0.7L9.3,4.3C9.2,4.1,8.9,4,8.6,4z"/>
</svg>
